<svg version="1.1" id="Capa_1" xmlns="http://www.w3.org/2000/svg" xmlns:xlink="http://www.w3.org/1999/xlink" x="0px" y="0px"
	 viewBox="0 0 900 650" style="enable-background:new 0 0 900 650;" xml:space="preserve">
<style type="text/css">
	.st0{fill:none;}
	.st1{fill:#353535;}
</style>
<g>
	<path class="st0" d="M548.89,311.31h-37.17c-1.96,0-3.56,1.59-3.56,3.56c3.1,60.45-15.48,48.99,40.73,49.97
		c1.96,0,3.56-1.59,3.56-3.56v-46.41C552.45,312.9,550.86,311.31,548.89,311.31z"/>
	<path class="st1" d="M577.17,258.48C596.64,253.4,699.3,67.93,768.18,93.49C752.12,50.9,704.45,24.48,659.7,33.06
		c-61.52,15.36-111.62,60.87-156.17,103.62C503.54,136.68,476.96,229.69,577.17,258.48z"/>
	<path class="st1" d="M667.97,173.77c45.95-12.18,35.43,52.04,35.43,52.04c-12.18,126.78,10.52,209.28,10.52,209.28
		c1.33-59.7,21.71-115.48,40.76-171.1c14.69-44.51,37.06-91.39,27.22-139.39C756.82,61.96,686.64,142.32,667.97,173.77z"/>
	<path class="st1" d="M689.56,192.59c-34.26,85.93-67.63,183.04-41.04,275.4c15.38,61.84,88.13,99.65,146.36,71.25
		c37.13-18.33,61.4-55.15,77.38-91.97C646.93,671.49,689.56,192.59,689.56,192.59z"/>
	<path class="st1" d="M322.83,255.17c100.21-28.79,73.63-121.8,73.63-121.8C351.91,90.62,301.82,45.11,240.3,29.75
		c-44.75-8.57-92.42,17.84-108.47,60.43C200.7,64.62,303.36,250.08,322.83,255.17z"/>
	<path class="st1" d="M186.08,431.78c0,0,22.7-82.49,10.52-209.28c0,0-10.52-64.22,35.43-52.04
		C213.36,139,143.18,58.65,118.1,121.29c-9.85,48,12.53,94.88,27.22,139.39C164.37,316.3,184.75,372.08,186.08,431.78z"/>
	<path class="st1" d="M27.74,443.96c15.98,36.82,40.25,73.64,77.38,91.97c58.23,28.41,130.97-9.4,146.36-71.25
		c26.6-92.37-6.78-189.47-41.04-275.4C210.44,189.28,253.07,668.18,27.74,443.96z"/>
	<path class="st1" d="M367.2,255.17h171.08c0,0-57.58-15.38-55.36-113.44h-68.1C414.81,141.72,425.33,213.1,367.2,255.17z"/>
	<path class="st1" d="M441.62,426.34c-0.99-2.3-89.06-86.53-88.26-89.64v-22.81c0-1.83,1.48-3.31,3.31-3.31h37.11
		c1.83,0,3.31,1.48,3.31,3.31v50.13c0,0.88,0.35,1.72,0.97,2.34l38.96,38.96c2.09,2.09,5.65,0.61,5.65-2.34V268.49
		c0-1.83-1.48-3.31-3.31-3.31H310.53c-7.39-3.65-1.68,88.75-3.49,89.98c0,0.88,0.35,1.73,0.97,2.34c0.99,2.3,89.34,86.8,88.53,89.91
		v29.71c0,3.14-3.96,4.52-5.91,2.06l-36.93-46.63c-0.46-0.59-0.72-1.31-0.72-2.06v-9.29c0-0.88-0.35-1.72-0.97-2.34l-39.14-39.14
		c-2.09-2.09-5.65-0.61-5.65,2.34c0,0,0,65.05,0,65.06c-0.64,2.47,130.48,167.23,131.19,169.26c1.37,1.75,4.17,0.78,4.18-1.43
		C441.65,612.61,444.41,427.97,441.62,426.34z"/>
	<path class="st1" d="M598.43,430.44c0-1.1-0.51-2.15-1.39-2.82l-14.31-11.01c-2.69-2.07-1.23-6.38,2.17-6.38
		c3.03-0.52,13.8,2.09,13.53-3.56c0,0,0-137.95,0-137.95c0-1.96-1.59-3.56-3.56-3.56H465.74c-10.19-0.74-0.13,352.98-3.56,356.55
		l44.72-58.08c0.48-0.62,0.74-1.38,0.74-2.17V423.77c0-2.96,3.4-4.62,5.74-2.81l26.28,20.41c2.72,1.96,0.49,4.53,0.09,6.89
		c0,0,0,63.21,0,63.21c0,3.37,4.25,4.85,6.35,2.21l51.58-65.2C599.23,447.62,598.12,431.98,598.43,430.44z M552.45,361.28
		c0,1.96-1.59,3.56-3.56,3.56c-56.21-0.98-37.63,10.48-40.73-49.97c0-1.96,1.59-3.56,3.56-3.56h37.17c1.96,0,3.56,1.59,3.56,3.56
		V361.28z"/>
</g>
</svg>